<?xml version="1.0" encoding="utf-8"?>
<svg xmlns="http://www.w3.org/2000/svg" xmlns:xlink="http://www.w3.org/1999/xlink" width="600" height="400" viewBox="0 0 2400 1600">
<defs>
  <clipPath id="clip460">
    <rect x="0" y="0" width="2400" height="1600"/>
  </clipPath>
</defs>
<path clip-path="url(#clip460)" d="M0 1600 L2400 1600 L2400 0 L0 0  Z" fill="#ffffff" fill-rule="evenodd" fill-opacity="1"/>
<defs>
  <clipPath id="clip461">
    <rect x="480" y="0" width="1681" height="1600"/>
  </clipPath>
</defs>
<path clip-path="url(#clip460)" d="M138.959 1486.45 L2352.76 1486.45 L2352.76 123.472 L138.959 123.472  Z" fill="#ffffff" fill-rule="evenodd" fill-opacity="1"/>
<defs>
  <clipPath id="clip462">
    <rect x="138" y="123" width="2215" height="1364"/>
  </clipPath>
</defs>
<polyline clip-path="url(#clip462)" style="stroke:#000000; stroke-linecap:round; stroke-linejoin:round; stroke-width:2; stroke-opacity:0.1; fill:none" points="201.614,1486.45 201.614,123.472 "/>
<polyline clip-path="url(#clip462)" style="stroke:#000000; stroke-linecap:round; stroke-linejoin:round; stroke-width:2; stroke-opacity:0.1; fill:none" points="723.736,1486.45 723.736,123.472 "/>
<polyline clip-path="url(#clip462)" style="stroke:#000000; stroke-linecap:round; stroke-linejoin:round; stroke-width:2; stroke-opacity:0.1; fill:none" points="1245.86,1486.45 1245.86,123.472 "/>
<polyline clip-path="url(#clip462)" style="stroke:#000000; stroke-linecap:round; stroke-linejoin:round; stroke-width:2; stroke-opacity:0.1; fill:none" points="1767.98,1486.45 1767.98,123.472 "/>
<polyline clip-path="url(#clip462)" style="stroke:#000000; stroke-linecap:round; stroke-linejoin:round; stroke-width:2; stroke-opacity:0.1; fill:none" points="2290.1,1486.45 2290.1,123.472 "/>
<polyline clip-path="url(#clip460)" style="stroke:#000000; stroke-linecap:round; stroke-linejoin:round; stroke-width:4; stroke-opacity:1; fill:none" points="138.959,1486.45 2352.76,1486.45 "/>
<polyline clip-path="url(#clip460)" style="stroke:#000000; stroke-linecap:round; stroke-linejoin:round; stroke-width:4; stroke-opacity:1; fill:none" points="201.614,1486.45 201.614,1467.55 "/>
<polyline clip-path="url(#clip460)" style="stroke:#000000; stroke-linecap:round; stroke-linejoin:round; stroke-width:4; stroke-opacity:1; fill:none" points="723.736,1486.45 723.736,1467.55 "/>
<polyline clip-path="url(#clip460)" style="stroke:#000000; stroke-linecap:round; stroke-linejoin:round; stroke-width:4; stroke-opacity:1; fill:none" points="1245.86,1486.45 1245.86,1467.55 "/>
<polyline clip-path="url(#clip460)" style="stroke:#000000; stroke-linecap:round; stroke-linejoin:round; stroke-width:4; stroke-opacity:1; fill:none" points="1767.98,1486.45 1767.98,1467.55 "/>
<polyline clip-path="url(#clip460)" style="stroke:#000000; stroke-linecap:round; stroke-linejoin:round; stroke-width:4; stroke-opacity:1; fill:none" points="2290.1,1486.45 2290.1,1467.55 "/>
<path clip-path="url(#clip460)" d="M170.515 1532.02 L200.19 1532.02 L200.19 1535.95 L170.515 1535.95 L170.515 1532.02 Z" fill="#000000" fill-rule="nonzero" fill-opacity="1" /><path clip-path="url(#clip460)" d="M223.13 1518.36 L211.325 1536.81 L223.13 1536.81 L223.13 1518.36 M221.903 1514.29 L227.783 1514.29 L227.783 1536.81 L232.713 1536.81 L232.713 1540.7 L227.783 1540.7 L227.783 1548.85 L223.13 1548.85 L223.13 1540.7 L207.528 1540.7 L207.528 1536.19 L221.903 1514.29 Z" fill="#000000" fill-rule="nonzero" fill-opacity="1" /><path clip-path="url(#clip460)" d="M693.678 1532.02 L723.354 1532.02 L723.354 1535.95 L693.678 1535.95 L693.678 1532.02 Z" fill="#000000" fill-rule="nonzero" fill-opacity="1" /><path clip-path="url(#clip460)" d="M737.474 1544.91 L753.794 1544.91 L753.794 1548.85 L731.849 1548.85 L731.849 1544.91 Q734.511 1542.16 739.095 1537.53 Q743.701 1532.88 744.882 1531.53 Q747.127 1529.01 748.007 1527.27 Q748.909 1525.51 748.909 1523.82 Q748.909 1521.07 746.965 1519.33 Q745.044 1517.6 741.942 1517.6 Q739.743 1517.6 737.289 1518.36 Q734.858 1519.13 732.081 1520.68 L732.081 1515.95 Q734.905 1514.82 737.358 1514.24 Q739.812 1513.66 741.849 1513.66 Q747.22 1513.66 750.414 1516.35 Q753.608 1519.03 753.608 1523.52 Q753.608 1525.65 752.798 1527.57 Q752.011 1529.47 749.905 1532.07 Q749.326 1532.74 746.224 1535.95 Q743.122 1539.15 737.474 1544.91 Z" fill="#000000" fill-rule="nonzero" fill-opacity="1" /><path clip-path="url(#clip460)" d="M1245.86 1517.37 Q1242.25 1517.37 1240.42 1520.93 Q1238.61 1524.47 1238.61 1531.6 Q1238.61 1538.71 1240.42 1542.27 Q1242.25 1545.82 1245.86 1545.82 Q1249.49 1545.82 1251.3 1542.27 Q1253.13 1538.71 1253.13 1531.6 Q1253.13 1524.47 1251.3 1520.93 Q1249.49 1517.37 1245.86 1517.37 M1245.86 1513.66 Q1251.67 1513.66 1254.72 1518.27 Q1257.8 1522.85 1257.8 1531.6 Q1257.8 1540.33 1254.72 1544.94 Q1251.67 1549.52 1245.86 1549.52 Q1240.05 1549.52 1236.97 1544.94 Q1233.91 1540.33 1233.91 1531.6 Q1233.91 1522.85 1236.97 1518.27 Q1240.05 1513.66 1245.86 1513.66 Z" fill="#000000" fill-rule="nonzero" fill-opacity="1" /><path clip-path="url(#clip460)" d="M1762.63 1544.91 L1778.95 1544.91 L1778.95 1548.85 L1757.01 1548.85 L1757.01 1544.91 Q1759.67 1542.16 1764.25 1537.53 Q1768.86 1532.88 1770.04 1531.53 Q1772.29 1529.01 1773.16 1527.27 Q1774.07 1525.51 1774.07 1523.82 Q1774.07 1521.07 1772.12 1519.33 Q1770.2 1517.6 1767.1 1517.6 Q1764.9 1517.6 1762.45 1518.36 Q1760.02 1519.13 1757.24 1520.68 L1757.24 1515.95 Q1760.06 1514.82 1762.52 1514.24 Q1764.97 1513.66 1767.01 1513.66 Q1772.38 1513.66 1775.57 1516.35 Q1778.77 1519.03 1778.77 1523.52 Q1778.77 1525.65 1777.96 1527.57 Q1777.17 1529.47 1775.06 1532.07 Q1774.48 1532.74 1771.38 1535.95 Q1768.28 1539.15 1762.63 1544.91 Z" fill="#000000" fill-rule="nonzero" fill-opacity="1" /><path clip-path="url(#clip460)" d="M2293.11 1518.36 L2281.31 1536.81 L2293.11 1536.81 L2293.11 1518.36 M2291.88 1514.29 L2297.76 1514.29 L2297.76 1536.81 L2302.69 1536.81 L2302.69 1540.7 L2297.76 1540.7 L2297.76 1548.85 L2293.11 1548.85 L2293.11 1540.7 L2277.51 1540.7 L2277.51 1536.19 L2291.88 1514.29 Z" fill="#000000" fill-rule="nonzero" fill-opacity="1" /><polyline clip-path="url(#clip462)" style="stroke:#000000; stroke-linecap:round; stroke-linejoin:round; stroke-width:2; stroke-opacity:0.1; fill:none" points="138.959,1447.87 2352.76,1447.87 "/>
<polyline clip-path="url(#clip462)" style="stroke:#000000; stroke-linecap:round; stroke-linejoin:round; stroke-width:2; stroke-opacity:0.1; fill:none" points="138.959,1046.05 2352.76,1046.05 "/>
<polyline clip-path="url(#clip462)" style="stroke:#000000; stroke-linecap:round; stroke-linejoin:round; stroke-width:2; stroke-opacity:0.1; fill:none" points="138.959,644.232 2352.76,644.232 "/>
<polyline clip-path="url(#clip462)" style="stroke:#000000; stroke-linecap:round; stroke-linejoin:round; stroke-width:2; stroke-opacity:0.1; fill:none" points="138.959,242.411 2352.76,242.411 "/>
<polyline clip-path="url(#clip460)" style="stroke:#000000; stroke-linecap:round; stroke-linejoin:round; stroke-width:4; stroke-opacity:1; fill:none" points="138.959,1486.45 138.959,123.472 "/>
<polyline clip-path="url(#clip460)" style="stroke:#000000; stroke-linecap:round; stroke-linejoin:round; stroke-width:4; stroke-opacity:1; fill:none" points="138.959,1447.87 157.857,1447.87 "/>
<polyline clip-path="url(#clip460)" style="stroke:#000000; stroke-linecap:round; stroke-linejoin:round; stroke-width:4; stroke-opacity:1; fill:none" points="138.959,1046.05 157.857,1046.05 "/>
<polyline clip-path="url(#clip460)" style="stroke:#000000; stroke-linecap:round; stroke-linejoin:round; stroke-width:4; stroke-opacity:1; fill:none" points="138.959,644.232 157.857,644.232 "/>
<polyline clip-path="url(#clip460)" style="stroke:#000000; stroke-linecap:round; stroke-linejoin:round; stroke-width:4; stroke-opacity:1; fill:none" points="138.959,242.411 157.857,242.411 "/>
<path clip-path="url(#clip460)" d="M91.0151 1433.67 Q87.404 1433.67 85.5753 1437.24 Q83.7697 1440.78 83.7697 1447.91 Q83.7697 1455.01 85.5753 1458.58 Q87.404 1462.12 91.0151 1462.12 Q94.6493 1462.12 96.4548 1458.58 Q98.2835 1455.01 98.2835 1447.91 Q98.2835 1440.78 96.4548 1437.24 Q94.6493 1433.67 91.0151 1433.67 M91.0151 1429.97 Q96.8252 1429.97 99.8808 1434.57 Q102.959 1439.16 102.959 1447.91 Q102.959 1456.63 99.8808 1461.24 Q96.8252 1465.82 91.0151 1465.82 Q85.2049 1465.82 82.1262 1461.24 Q79.0707 1456.63 79.0707 1447.91 Q79.0707 1439.16 82.1262 1434.57 Q85.2049 1429.97 91.0151 1429.97 Z" fill="#000000" fill-rule="nonzero" fill-opacity="1" /><path clip-path="url(#clip460)" d="M82.0568 1028.77 L100.413 1028.77 L100.413 1032.71 L86.3392 1032.71 L86.3392 1041.18 Q87.3577 1040.83 88.3762 1040.67 Q89.3947 1040.49 90.4132 1040.49 Q96.2002 1040.49 99.5798 1043.66 Q102.959 1046.83 102.959 1052.24 Q102.959 1057.82 99.4872 1060.93 Q96.015 1064 89.6956 1064 Q87.5197 1064 85.2512 1063.63 Q83.0058 1063.26 80.5984 1062.52 L80.5984 1057.82 Q82.6818 1058.96 84.904 1059.51 Q87.1262 1060.07 89.603 1060.07 Q93.6076 1060.07 95.9456 1057.96 Q98.2835 1055.86 98.2835 1052.24 Q98.2835 1048.63 95.9456 1046.53 Q93.6076 1044.42 89.603 1044.42 Q87.728 1044.42 85.8531 1044.84 Q84.0012 1045.25 82.0568 1046.13 L82.0568 1028.77 Z" fill="#000000" fill-rule="nonzero" fill-opacity="1" /><path clip-path="url(#clip460)" d="M51.6634 657.577 L59.3023 657.577 L59.3023 631.211 L50.9921 632.878 L50.9921 628.618 L59.256 626.952 L63.9319 626.952 L63.9319 657.577 L71.5707 657.577 L71.5707 661.512 L51.6634 661.512 L51.6634 657.577 Z" fill="#000000" fill-rule="nonzero" fill-opacity="1" /><path clip-path="url(#clip460)" d="M91.0151 630.03 Q87.404 630.03 85.5753 633.595 Q83.7697 637.137 83.7697 644.266 Q83.7697 651.373 85.5753 654.938 Q87.404 658.479 91.0151 658.479 Q94.6493 658.479 96.4548 654.938 Q98.2835 651.373 98.2835 644.266 Q98.2835 637.137 96.4548 633.595 Q94.6493 630.03 91.0151 630.03 M91.0151 626.327 Q96.8252 626.327 99.8808 630.933 Q102.959 635.516 102.959 644.266 Q102.959 652.993 99.8808 657.6 Q96.8252 662.183 91.0151 662.183 Q85.2049 662.183 82.1262 657.6 Q79.0707 652.993 79.0707 644.266 Q79.0707 635.516 82.1262 630.933 Q85.2049 626.327 91.0151 626.327 Z" fill="#000000" fill-rule="nonzero" fill-opacity="1" /><path clip-path="url(#clip460)" d="M52.6588 255.756 L60.2976 255.756 L60.2976 229.39 L51.9875 231.057 L51.9875 226.798 L60.2513 225.131 L64.9272 225.131 L64.9272 255.756 L72.5661 255.756 L72.5661 259.691 L52.6588 259.691 L52.6588 255.756 Z" fill="#000000" fill-rule="nonzero" fill-opacity="1" /><path clip-path="url(#clip460)" d="M82.0568 225.131 L100.413 225.131 L100.413 229.066 L86.3392 229.066 L86.3392 237.538 Q87.3577 237.191 88.3762 237.029 Q89.3947 236.844 90.4132 236.844 Q96.2002 236.844 99.5798 240.015 Q102.959 243.187 102.959 248.603 Q102.959 254.182 99.4872 257.284 Q96.015 260.362 89.6956 260.362 Q87.5197 260.362 85.2512 259.992 Q83.0058 259.622 80.5984 258.881 L80.5984 254.182 Q82.6818 255.316 84.904 255.872 Q87.1262 256.427 89.603 256.427 Q93.6076 256.427 95.9456 254.321 Q98.2835 252.214 98.2835 248.603 Q98.2835 244.992 95.9456 242.886 Q93.6076 240.779 89.603 240.779 Q87.728 240.779 85.8531 241.196 Q84.0012 241.612 82.0568 242.492 L82.0568 225.131 Z" fill="#000000" fill-rule="nonzero" fill-opacity="1" /><path clip-path="url(#clip460)" d="M1061.5 9.54393 L1061.5 15.7418 L1054.37 15.7418 Q1050.36 15.7418 1048.78 17.3622 Q1047.24 18.9825 1047.24 23.1955 L1047.24 27.2059 L1059.52 27.2059 L1059.52 32.9987 L1047.24 32.9987 L1047.24 72.576 L1039.75 72.576 L1039.75 32.9987 L1032.62 32.9987 L1032.62 27.2059 L1039.75 27.2059 L1039.75 24.0462 Q1039.75 16.471 1043.27 13.0277 Q1046.8 9.54393 1054.45 9.54393 L1061.5 9.54393 Z" fill="#000000" fill-rule="nonzero" fill-opacity="1" /><path clip-path="url(#clip460)" d="M1085.64 9.62495 Q1080.22 18.942 1077.58 28.0566 Q1074.95 37.1711 1074.95 46.5287 Q1074.95 55.8863 1077.58 65.0818 Q1080.26 74.2369 1085.64 83.5134 L1079.16 83.5134 Q1073.09 73.9938 1070.05 64.7983 Q1067.05 55.6027 1067.05 46.5287 Q1067.05 37.4952 1070.05 28.3401 Q1073.05 19.1851 1079.16 9.62495 L1085.64 9.62495 Z" fill="#000000" fill-rule="nonzero" fill-opacity="1" /><path clip-path="url(#clip460)" d="M1137.82 27.2059 L1121.41 49.2833 L1138.67 72.576 L1129.88 72.576 L1116.67 54.752 L1103.47 72.576 L1094.68 72.576 L1112.3 48.8377 L1096.18 27.2059 L1104.97 27.2059 L1117 43.369 L1129.03 27.2059 L1137.82 27.2059 Z" fill="#000000" fill-rule="nonzero" fill-opacity="1" /><path clip-path="url(#clip460)" d="M1148.03 9.62495 L1154.51 9.62495 Q1160.59 19.1851 1163.58 28.3401 Q1166.62 37.4952 1166.62 46.5287 Q1166.62 55.6027 1163.58 64.7983 Q1160.59 73.9938 1154.51 83.5134 L1148.03 83.5134 Q1153.42 74.2369 1156.05 65.0818 Q1158.72 55.8863 1158.72 46.5287 Q1158.72 37.1711 1156.05 28.0566 Q1153.42 18.942 1148.03 9.62495 Z" fill="#000000" fill-rule="nonzero" fill-opacity="1" /><path clip-path="url(#clip460)" d="M1208.91 34.9026 L1260.85 34.9026 L1260.85 41.7081 L1208.91 41.7081 L1208.91 34.9026 M1208.91 51.4303 L1260.85 51.4303 L1260.85 58.3168 L1208.91 58.3168 L1208.91 51.4303 Z" fill="#000000" fill-rule="nonzero" fill-opacity="1" /><path clip-path="url(#clip460)" d="M1341.54 27.2059 L1325.13 49.2833 L1342.39 72.576 L1333.6 72.576 L1320.39 54.752 L1307.19 72.576 L1298.4 72.576 L1316.02 48.8377 L1299.9 27.2059 L1308.69 27.2059 L1320.72 43.369 L1332.75 27.2059 L1341.54 27.2059 Z" fill="#000000" fill-rule="nonzero" fill-opacity="1" /><path clip-path="url(#clip460)" d="M1383.83 12.096 L1405.83 34.6595 L1397.69 34.6595 L1379.86 18.6585 L1362.04 34.6595 L1353.9 34.6595 L1375.89 12.096 L1383.83 12.096 Z" fill="#000000" fill-rule="nonzero" fill-opacity="1" /><path clip-path="url(#clip460)" d="M1430.54 65.6895 L1459.1 65.6895 L1459.1 72.576 L1420.69 72.576 L1420.69 65.6895 Q1425.35 60.8689 1433.37 52.7671 Q1441.44 44.6248 1443.5 42.2752 Q1447.43 37.8598 1448.97 34.8216 Q1450.55 31.7429 1450.55 28.7857 Q1450.55 23.9651 1447.15 20.927 Q1443.78 17.8888 1438.36 17.8888 Q1434.51 17.8888 1430.21 19.2256 Q1425.96 20.5624 1421.1 23.2765 L1421.1 15.0127 Q1426.04 13.0277 1430.34 12.015 Q1434.63 11.0023 1438.19 11.0023 Q1447.59 11.0023 1453.18 15.7013 Q1458.77 20.4004 1458.77 28.2591 Q1458.77 31.9859 1457.36 35.3482 Q1455.98 38.6699 1452.29 43.2069 Q1451.28 44.3817 1445.85 50.0125 Q1440.42 55.6027 1430.54 65.6895 Z" fill="#000000" fill-rule="nonzero" fill-opacity="1" /><polyline clip-path="url(#clip462)" style="stroke:#009af9; stroke-linecap:round; stroke-linejoin:round; stroke-width:12; stroke-opacity:1; fill:none" points="201.614,162.047 227.72,225.535 253.826,287.415 279.932,347.688 306.038,406.354 332.145,463.412 358.251,518.864 384.357,572.708 410.463,624.944 436.569,675.574 462.675,724.596 488.781,772.011 514.887,817.818 540.993,862.019 567.099,904.612 593.205,945.597 619.312,984.976 645.418,1022.75 671.524,1058.91 697.63,1093.47 723.736,1126.42 749.842,1157.76 775.948,1187.49 802.054,1215.62 828.16,1242.14 854.266,1267.05 880.372,1290.36 906.478,1312.06 932.585,1332.15 958.691,1350.63 984.797,1367.51 1010.9,1382.78 1037.01,1396.44 1063.12,1408.49 1089.22,1418.94 1115.33,1427.78 1141.43,1435.01 1167.54,1440.64 1193.65,1444.66 1219.75,1447.07 1245.86,1447.87 1271.96,1447.07 1298.07,1444.66 1324.18,1440.64 1350.28,1435.01 1376.39,1427.78 1402.49,1418.94 1428.6,1408.49 1454.71,1396.44 1480.81,1382.78 1506.92,1367.51 1533.02,1350.63 1559.13,1332.15 1585.24,1312.06 1611.34,1290.36 1637.45,1267.05 1663.56,1242.14 1689.66,1215.62 1715.77,1187.49 1741.87,1157.76 1767.98,1126.42 1794.09,1093.47 1820.19,1058.91 1846.3,1022.75 1872.4,984.976 1898.51,945.597 1924.62,904.612 1950.72,862.019 1976.83,817.818 2002.93,772.011 2029.04,724.596 2055.15,675.574 2081.25,624.944 2107.36,572.708 2133.46,518.864 2159.57,463.412 2185.68,406.354 2211.78,347.688 2237.89,287.415 2264,225.535 2290.1,162.047 "/>
<path clip-path="url(#clip460)" d="M2005.15 1441.02 L2278.96 1441.02 L2278.96 1337.34 L2005.15 1337.34  Z" fill="#ffffff" fill-rule="evenodd" fill-opacity="1"/>
<polyline clip-path="url(#clip460)" style="stroke:#000000; stroke-linecap:round; stroke-linejoin:round; stroke-width:4; stroke-opacity:1; fill:none" points="2005.15,1441.02 2278.96,1441.02 2278.96,1337.34 2005.15,1337.34 2005.15,1441.02 "/>
<polyline clip-path="url(#clip460)" style="stroke:#009af9; stroke-linecap:round; stroke-linejoin:round; stroke-width:12; stroke-opacity:1; fill:none" points="2029.75,1389.18 2177.34,1389.18 "/>
<path clip-path="url(#clip460)" d="M2215.78 1408.86 Q2213.97 1413.49 2212.26 1414.9 Q2210.55 1416.32 2207.68 1416.32 L2204.27 1416.32 L2204.27 1412.75 L2206.77 1412.75 Q2208.53 1412.75 2209.5 1411.92 Q2210.48 1411.08 2211.66 1407.98 L2212.42 1406.04 L2201.93 1380.53 L2206.45 1380.53 L2214.55 1400.81 L2222.65 1380.53 L2227.17 1380.53 L2215.78 1408.86 Z" fill="#000000" fill-rule="nonzero" fill-opacity="1" /><path clip-path="url(#clip460)" d="M2234.46 1402.52 L2242.1 1402.52 L2242.1 1376.15 L2233.79 1377.82 L2233.79 1373.56 L2242.05 1371.9 L2246.73 1371.9 L2246.73 1402.52 L2254.36 1402.52 L2254.36 1406.46 L2234.46 1406.46 L2234.46 1402.52 Z" fill="#000000" fill-rule="nonzero" fill-opacity="1" /></svg>
